<svg xmlns="http://www.w3.org/2000/svg" viewBox="0 0 126 147"><defs><style>.cls-1{fill:#fefefe;}.cls-2{fill:#efefef;}.cls-3{fill:#e7e7e7;}.cls-4{fill:#ececec;}.cls-5{fill:#d3d3d3;}.cls-6{fill:#dadada;}</style></defs><g id="Calque_2" data-name="Calque 2"><g id="Calque_1-2" data-name="Calque 1"><path class="cls-1" d="M125.93,74c0,23.32,0,46.64.07,70,0,2.48-.56,3-3,3Q63,146.87,3,147c-2.48,0-3-.56-3-3Q.14,73.51,0,3C0,.56.56,0,3,0Q63,.14,123,0c2.48,0,3.05.56,3,3C125.89,26.69,125.93,50.34,125.93,74ZM58.54,54.65q0,7.44,0,14.88l0,4c-.18,2.43,1.17,3.08,3.31,2.94a9,9,0,0,1,5.63,1v26.79c-1.58,1.58-1,2.53.9,3.06.94,3.46.58,7.45,4,9.88,3.61,6.78,9.66,9,16.87,8.92,5.23,2,10.66.69,16,.83,2.06,0,1.83-2,1.83-3.41,0-3.79,0-7.58,0-11.36-.17-2.66.44-5.63-2.89-7l-6.89,0c-.53-2.53-5.11-2.24-4.06-5.87,0-5.42,0-10.84,0-16.26,0-8.08.68-8.67,8.63-7.43.64.1,1.24.43,1.88.57,1.76.38,3.21-.37,3.17-2.1-.09-4.17,1.29-8.46-.8-12.5,0-8.71,0-8.71-8.68-8.91l-1.94,0c-2.06,0-2.26-1.4-2.28-3v-5c-.82-2.61,2-6.11-2-7.94h-5c-5.07,0-10.13.08-15.19-.07-2.72-.07-3.83.91-3.73,3.69.15,4.08,0,8.18,0,12.26l0,0C64.5,53.6,60.74,50.75,58.54,54.65ZM45.64,23.89c-.11-2-1.54-2-3-1.92l-2.86-.19c-3.45-3.2-9.81-2.18-13,2.07l-2,2c-3,1-4.49,2.72-3,6l0,1.94c-.48.27-1.3.47-1.39.84-.24,1,.7,1.07,1.39,1.25L22,39.65c-.14,1.37.53,2,1.85,2.1h0c3.21,5.69,10.92,8,18.82,5.43,4.68-1.5,8.12-4.58,8.82-9.51.78-5.54.11-10.89-5.84-13.78Zm1,29.8c-7.23-2.07-14.57-.83-21.86-.63-.33,0-.64,1-1,1.56v67.51c-1.19,2.38-1.53,4.41,2,4.91l7,0c3.77,0,7.58-.25,11.33.08,4.19.37,5.69-.82,5.63-5.36-.26-19.74-.12-39.48-.13-59.22-.27-2,.77-4.18-.89-6C48.65,55.2,48.62,53.75,46.65,53.69Z"/><path class="cls-2" d="M93.2,44.71c0,1.66,0,3.32,0,5a4.6,4.6,0,0,0-3.37,5.63,8.12,8.12,0,0,0,7.45,6.19c2.92.27,5.88.07,8.82.07,2.09,4,.71,8.33.8,12.5,0,1.73-1.41,2.48-3.17,2.1-.64-.14-1.24-.47-1.88-.57-8-1.24-8.63-.65-8.63,7.43,0,5.42,0,10.84,0,16.26-4.43,2.33-4.58,6.3-.78,10,4.35,4.26,9.43,3.57,14.62,2.84,0,3.78,0,7.57,0,11.36,0,1.45.23,3.46-1.83,3.41-5.33-.14-10.76,1.2-16-.83-.41-3-2.71-4.46-4.87-5.88a15,15,0,0,1-6.89-9.34c-1.47-6.73-2.5-13.58-2-20.52S75.81,76.72,70,71.46c-3.71-3.34-3.43-7,.55-9.85,3.31-2.39,5.24-5,5-9.45-.12-2.5,0-6,3.92-6.39C84,45.3,88.62,45.05,93.2,44.71Z"/><path class="cls-2" d="M49.6,62.58c0,19.74-.13,39.48.13,59.22.06,4.54-1.44,5.73-5.63,5.36-3.75-.33-7.56-.08-11.33-.08,0-19.34.11-38.68-.08-58,0-4.88,2.17-6.51,6.52-6.49C42.67,62.6,46.14,62.58,49.6,62.58Z"/><path class="cls-3" d="M93.2,44.71c-4.58.34-9.17.59-13.73,1.06-3.9.4-4,3.89-3.92,6.39.22,4.42-1.71,7.06-5,9.45-4,2.87-4.26,6.51-.55,9.85,5.83,5.26,6.13,11.89,5.57,18.92s.48,13.79,2,20.52a15,15,0,0,0,6.89,9.34c2.16,1.42,4.46,2.91,4.87,5.88-7.21,0-13.26-2.14-16.87-8.92,1.43-.15,3.21.17,2.37-2.38-3.1-9.41-2-19.16-2.51-28.8-.17-3.23.18-7.64-4.8-8.55a9,9,0,0,0-5.63-1c-2.14.14-3.49-.51-3.31-2.94,3.52,0,5-1.8,5-5.23,0-3.8.95-7.29,4.42-9.32s4.63-4.82,4.52-8.61c-.1-3.51.82-6.59,4.76-7.61a21.74,21.74,0,0,1,7.26-1c3.63.3,5.93-1.38,6.78-5C95.22,38.6,92.38,42.1,93.2,44.71Z"/><path class="cls-4" d="M45.64,23.89c6,2.89,6.62,8.24,5.84,13.78-.7,4.93-4.14,8-8.82,9.51-7.9,2.53-15.61.26-18.82-5.43,2.43.22,3-1.09,3-3.27.14-4.91,2.19-8.72,6.8-10.92,2.68-1.28,5.46-.55,8.19-.65C44,26.82,45.91,26.83,45.64,23.89Z"/><path class="cls-5" d="M23.83,122.13V54.62l20.83,0c-.82,4.8-4.56,3.91-7.76,3.93-8,.06-9.09,1.14-9.09,9.2q0,24.55,0,49.11C27.84,119.76,27.78,122.39,23.83,122.13Z"/><path class="cls-4" d="M49.6,62.58c-3.46,0-6.93,0-10.39,0-4.35,0-6.57,1.61-6.52,6.49.19,19.33.08,38.67.08,58l-7,0c4.8-5.63,4-12.42,4-19.08,0-13.49,0-27,0-40.47,0-5.69,1.15-7.1,7-6.8,4.7.25,8.7-.58,12-4.08C50.37,58.4,49.33,60.59,49.6,62.58Z"/><path class="cls-6" d="M48.71,56.61c-3.26,3.5-7.26,4.33-12,4.08-5.8-.3-6.94,1.11-6.95,6.8,0,13.49,0,27,0,40.47,0,6.66.79,13.45-4,19.08-3.5-.5-3.16-2.53-2-4.91,4,.26,4-2.37,4-5.23q-.06-24.56,0-49.11c0-8.06,1.1-9.14,9.09-9.2,3.2,0,6.94.87,7.76-3.93a2.13,2.13,0,0,0,2-1C48.62,53.75,48.65,55.2,48.71,56.61Z"/><path class="cls-5" d="M67.45,77.47c5,.91,4.63,5.32,4.8,8.55.51,9.64-.59,19.39,2.51,28.8.84,2.55-.94,2.23-2.37,2.38-3.46-2.43-3.1-6.42-4-9.88.09-1.14.28-2.3-.9-3.06Z"/><path class="cls-5" d="M45.64,23.89c.27,2.94-1.64,2.93-3.77,3-2.73.1-5.51-.63-8.19.65-4.61,2.2-6.66,6-6.8,10.92-.06,2.18-.61,3.49-3,3.27h0A1.92,1.92,0,0,0,22,39.65l-.21-3.81c0-.7,0-1.39,0-2.09s0-1.29,0-1.94a18.17,18.17,0,0,0,3-6l2-2a33.84,33.84,0,0,1,13-2.07l2.86.19a3.19,3.19,0,0,0,3,1.92Z"/><path class="cls-6" d="M91.25,36.77c-.85,3.58-3.15,5.26-6.78,5a21.74,21.74,0,0,0-7.26,1c-3.94,1-4.86,4.1-4.76,7.61.11,3.79-1.11,6.62-4.52,8.61s-4.45,5.52-4.42,9.32c0,3.43-1.48,5.26-5,5.23,0-1.33,0-2.66,0-4,1.1-.09,3,0,2.72-1.3-1-5.7,3.1-9.22,5.22-13.59a1.91,1.91,0,0,0,.91-2l0,0c3.89.26,3-2.64,3-4.74-.15-4.49,2-7.15,6.22-8A25.57,25.57,0,0,1,83,39.78c2.2.11,3.51-.58,3.31-3Z"/><path class="cls-3" d="M106.11,61.59c-2.94,0-5.9.2-8.82-.07a8.12,8.12,0,0,1-7.45-6.19,4.6,4.6,0,0,1,3.37-5.63c0,1.56.22,3,2.28,3l1.94,0C106.14,52.88,106.14,52.88,106.11,61.59Zm-6.45-7c-1.45.58-4.13-1-4.12,1.94,0,2.13,2.12,2.06,3.78,2.12,2,.06,4.13-.59,4.17-2.52C103.56,53.51,101,55.16,99.66,54.56Z"/><path class="cls-5" d="M86.3,36.76c.2,2.44-1.11,3.13-3.31,3a25.57,25.57,0,0,0-6.37.07c-4.17.9-6.37,3.56-6.22,8,.06,2.1.91,5-3,4.74,0-4.08.11-8.18,0-12.26-.1-2.78,1-3.76,3.73-3.69C76.17,36.84,81.23,36.75,86.3,36.76Z"/><path class="cls-3" d="M107.05,112.18c-5.19.73-10.27,1.42-14.62-2.84-3.8-3.73-3.65-7.7.78-10-1,3.63,3.53,3.34,4.06,5.87-1.72.3-2.28,1-1,2.56,1.45,1.74,3.39,1.61,5.31,1.39,2.33-.26,2.58-2,2.59-3.91C107.49,106.55,106.88,109.52,107.05,112.18Z"/><path class="cls-5" d="M66.47,54.64C64.35,59,60.2,62.53,61.25,68.23c.24,1.31-1.62,1.21-2.72,1.3q0-7.44,0-14.88Z"/><path class="cls-4" d="M46.65,53.69a2.13,2.13,0,0,1-2,1l-20.83,0c.32-.54.63-1.55,1-1.56C32.08,52.86,39.42,51.62,46.65,53.69Z"/><path class="cls-6" d="M104.16,105.22c0,1.88-.26,3.65-2.59,3.91-1.92.22-3.86.35-5.31-1.39-1.27-1.52-.71-2.26,1-2.56Z"/><path class="cls-4" d="M39.77,21.78a33.84,33.84,0,0,0-13,2.07C30,19.6,36.32,18.58,39.77,21.78Z"/><path class="cls-3" d="M66.47,54.64H58.54c2.2-3.9,6-1,8.84-2A1.91,1.91,0,0,1,66.47,54.64Z"/><path class="cls-4" d="M24.8,25.84a18.17,18.17,0,0,1-3,6C20.31,28.56,21.77,26.81,24.8,25.84Z"/><path class="cls-3" d="M67.45,104.26c1.18.76,1,1.92.9,3.06C66.4,106.79,65.87,105.84,67.45,104.26Z"/><path class="cls-4" d="M45.64,23.89a3.19,3.19,0,0,1-3-1.92C44.1,21.87,45.53,21.85,45.64,23.89Z"/><path class="cls-4" d="M21.77,33.75c0,.7,0,1.39,0,2.09-.7-.18-1.64-.25-1.4-1.25C20.47,34.22,21.29,34,21.77,33.75Z"/><path class="cls-4" d="M22,39.65a1.92,1.92,0,0,1,1.85,2.1C22.52,41.67,21.85,41,22,39.65Z"/><path class="cls-6" d="M99.66,54.56c1.32.6,3.9-1.05,3.83,1.54,0,1.93-2.19,2.58-4.17,2.52-1.66-.06-3.77,0-3.78-2.12C95.53,53.54,98.21,55.14,99.66,54.56Z"/></g></g></svg>