<svg width="126" height="147" viewBox="0 0 126 147" fill="none" xmlns="http://www.w3.org/2000/svg">
<g clip-path="url(#clip0)">
<g filter="url(#filter0_ddiiii)">
<path d="M37.2965 48.31C32.7898 48.31 29.1498 47.0967 26.3765 44.67C23.6898 42.1567 22.3465 39.0367 22.3465 35.31C22.3465 31.4967 23.6898 28.3333 26.3765 25.82C29.1498 23.3067 32.7898 22.05 37.2965 22.05C41.7165 22.05 45.2698 23.3067 47.9565 25.82C50.7298 28.3333 52.1165 31.4967 52.1165 35.31C52.1165 39.0367 50.7298 42.1567 47.9565 44.67C45.2698 47.0967 41.7165 48.31 37.2965 48.31ZM49.9065 55.07V128H24.4265V55.07H49.9065ZM107.447 106.29V128H96.3967C77.7634 128 68.4467 118.77 68.4467 100.31V76.26H59.4767V55.07H68.4467V37.39H94.0567V55.07H107.317V76.26H94.0567V100.7C94.0567 102.693 94.4901 104.123 95.3567 104.99C96.3101 105.857 97.8701 106.29 100.037 106.29H107.447Z" fill="#F1F1F1"/>
</g>
</g>
<defs>
<filter id="filter0_ddiiii" x="19.3465" y="19.05" width="91.1002" height="111.95" filterUnits="userSpaceOnUse" color-interpolation-filters="sRGB">
<feFlood flood-opacity="0" result="BackgroundImageFix"/>
<feColorMatrix in="SourceAlpha" type="matrix" values="0 0 0 0 0 0 0 0 0 0 0 0 0 0 0 0 0 0 127 0" result="hardAlpha"/>
<feOffset dx="-1" dy="-1"/>
<feGaussianBlur stdDeviation="1"/>
<feColorMatrix type="matrix" values="0 0 0 0 0.737255 0 0 0 0 0.737255 0 0 0 0 0.737255 0 0 0 0.5 0"/>
<feBlend mode="normal" in2="BackgroundImageFix" result="effect1_dropShadow"/>
<feColorMatrix in="SourceAlpha" type="matrix" values="0 0 0 0 0 0 0 0 0 0 0 0 0 0 0 0 0 0 127 0" result="hardAlpha"/>
<feOffset dx="1" dy="1"/>
<feGaussianBlur stdDeviation="1"/>
<feColorMatrix type="matrix" values="0 0 0 0 1 0 0 0 0 1 0 0 0 0 1 0 0 0 0.3 0"/>
<feBlend mode="normal" in2="effect1_dropShadow" result="effect2_dropShadow"/>
<feBlend mode="normal" in="SourceGraphic" in2="effect2_dropShadow" result="shape"/>
<feColorMatrix in="SourceAlpha" type="matrix" values="0 0 0 0 0 0 0 0 0 0 0 0 0 0 0 0 0 0 127 0" result="hardAlpha"/>
<feOffset dx="3" dy="3"/>
<feGaussianBlur stdDeviation="4"/>
<feComposite in2="hardAlpha" operator="arithmetic" k2="-1" k3="1"/>
<feColorMatrix type="matrix" values="0 0 0 0 0.737255 0 0 0 0 0.737255 0 0 0 0 0.737255 0 0 0 0.9 0"/>
<feBlend mode="normal" in2="shape" result="effect3_innerShadow"/>
<feColorMatrix in="SourceAlpha" type="matrix" values="0 0 0 0 0 0 0 0 0 0 0 0 0 0 0 0 0 0 127 0" result="hardAlpha"/>
<feOffset dx="-3" dy="-3"/>
<feGaussianBlur stdDeviation="3"/>
<feComposite in2="hardAlpha" operator="arithmetic" k2="-1" k3="1"/>
<feColorMatrix type="matrix" values="0 0 0 0 1 0 0 0 0 1 0 0 0 0 1 0 0 0 0.9 0"/>
<feBlend mode="normal" in2="effect3_innerShadow" result="effect4_innerShadow"/>
<feColorMatrix in="SourceAlpha" type="matrix" values="0 0 0 0 0 0 0 0 0 0 0 0 0 0 0 0 0 0 127 0" result="hardAlpha"/>
<feOffset dx="3" dy="-3"/>
<feGaussianBlur stdDeviation="3"/>
<feComposite in2="hardAlpha" operator="arithmetic" k2="-1" k3="1"/>
<feColorMatrix type="matrix" values="0 0 0 0 0.737255 0 0 0 0 0.737255 0 0 0 0 0.737255 0 0 0 0.2 0"/>
<feBlend mode="normal" in2="effect4_innerShadow" result="effect5_innerShadow"/>
<feColorMatrix in="SourceAlpha" type="matrix" values="0 0 0 0 0 0 0 0 0 0 0 0 0 0 0 0 0 0 127 0" result="hardAlpha"/>
<feOffset dx="-3" dy="3"/>
<feGaussianBlur stdDeviation="3"/>
<feComposite in2="hardAlpha" operator="arithmetic" k2="-1" k3="1"/>
<feColorMatrix type="matrix" values="0 0 0 0 0.737255 0 0 0 0 0.737255 0 0 0 0 0.737255 0 0 0 0.2 0"/>
<feBlend mode="normal" in2="effect5_innerShadow" result="effect6_innerShadow"/>
</filter>
<clipPath id="clip0">
<rect width="126" height="147" fill="white"/>
</clipPath>
</defs>
</svg>
