<svg width="410" height="188" viewBox="0 0 410 188" fill="none" xmlns="http://www.w3.org/2000/svg">
<path d="M84.96 52.144L71.232 106H50.112L42.624 73.36L34.848 106H13.824L0.192 52.144H18.912L24.96 87.856L32.928 52.144H53.088L61.344 87.952L67.296 52.144H84.96ZM115.37 106.672C109.994 106.672 105.162 105.552 100.874 103.312C96.6495 101.072 93.3215 97.872 90.8895 93.712C88.4575 89.552 87.2415 84.656 87.2415 79.024C87.2415 73.456 88.4575 68.592 90.8895 64.432C93.3855 60.272 96.7455 57.072 100.97 54.832C105.258 52.592 110.09 51.472 115.466 51.472C120.842 51.472 125.642 52.592 129.866 54.832C134.154 57.072 137.514 60.272 139.946 64.432C142.442 68.592 143.69 73.456 143.69 79.024C143.69 84.592 142.442 89.488 139.946 93.712C137.514 97.872 134.154 101.072 129.866 103.312C125.578 105.552 120.746 106.672 115.37 106.672ZM115.37 90.352C117.994 90.352 120.17 89.392 121.898 87.472C123.69 85.488 124.586 82.672 124.586 79.024C124.586 75.376 123.69 72.592 121.898 70.672C120.17 68.752 118.026 67.792 115.466 67.792C112.906 67.792 110.762 68.752 109.034 70.672C107.306 72.592 106.442 75.376 106.442 79.024C106.442 82.736 107.274 85.552 108.938 87.472C110.602 89.392 112.746 90.352 115.37 90.352ZM170.161 61.648C172.273 58.576 174.833 56.144 177.841 54.352C180.849 52.56 184.081 51.664 187.537 51.664V71.728H182.257C178.161 71.728 175.121 72.528 173.137 74.128C171.153 75.728 170.161 78.512 170.161 82.48V106H151.345V52.144H170.161V61.648ZM227.978 106L213.098 83.92V106H194.282V34.96H213.098V73.264L227.978 52.144H250.538L229.322 79.216L250.922 106H227.978ZM302.693 47.152C299.365 47.152 296.677 46.256 294.629 44.464C292.645 42.608 291.653 40.304 291.653 37.552C291.653 34.736 292.645 32.4 294.629 30.544C296.677 28.688 299.365 27.76 302.693 27.76C305.957 27.76 308.581 28.688 310.565 30.544C312.613 32.4 313.637 34.736 313.637 37.552C313.637 40.304 312.613 42.608 310.565 44.464C308.581 46.256 305.957 47.152 302.693 47.152ZM312.005 52.144V106H293.189V52.144H312.005ZM354.496 89.968V106H346.336C332.576 106 325.696 99.184 325.696 85.552V67.792H319.072V52.144H325.696V39.088H344.608V52.144H354.4V67.792H344.608V85.84C344.608 87.312 344.928 88.368 345.568 89.008C346.272 89.648 347.424 89.968 349.024 89.968H354.496Z" fill="#F1F1F1"/>
<circle cx="396.5" cy="93.5" r="12.5" fill="url(#paint0_linear)"/>
<defs>
<linearGradient id="paint0_linear" x1="384" y1="81" x2="409" y2="106" gradientUnits="userSpaceOnUse">
<stop offset="0.0520833" stop-color="#FF8B03"/>
<stop offset="0.572917" stop-color="#EF5469"/>
</linearGradient>
</defs>
</svg>
